<?xml version="1.0" encoding="utf-8"?>
<!-- Generator: Adobe Illustrator 23.0.3, SVG Export Plug-In . SVG Version: 6.00 Build 0)  -->
<svg version="1.1" id="Layer_1" xmlns="http://www.w3.org/2000/svg" xmlns:xlink="http://www.w3.org/1999/xlink" x="0px" y="0px"
	 viewBox="0 0 512 512" style="enable-background:new 0 0 512 512;" xml:space="preserve">
<style type="text/css">
	.st0{fill:url(#SVGID_1_);}
	.st1{fill:#0A0909;}
	.st2{fill:#F8EECB;}
	.st3{fill:#FFFFFF;}
	.st4{fill:#D57929;}
	.st5{fill:#F6F7D9;}
	.st6{fill:#BBAB91;}
	.st7{fill:#B19B7B;}
	.st8{fill:#7F280A;}
	.st9{fill:#E18A3B;}
	.st10{fill:#F3B963;}
	.st11{fill-rule:evenodd;clip-rule:evenodd;fill:#110C4F;}
	.st12{fill-rule:evenodd;clip-rule:evenodd;fill:#FAFAFA;}
	.st13{fill-rule:evenodd;clip-rule:evenodd;fill:#EA796B;}
	.st14{fill:#1C303A;}
	.st15{fill:#515D6E;}
	.st16{fill:#192433;}
	.st17{fill:#192731;}
	.st18{fill:#45545E;}
	.st19{fill:#040404;}
	.st20{fill:#3E4E5B;}
	.st21{fill:#7F94A4;}
	.st22{fill:#4E5E6B;}
	.st23{fill:#87909F;}
</style>
<radialGradient id="SVGID_1_" cx="256" cy="256" r="315.3632" gradientUnits="userSpaceOnUse">
	<stop  offset="0" style="stop-color:#517A87"/>
	<stop  offset="1" style="stop-color:#28475A"/>
</radialGradient>
<rect class="st0" width="512" height="512"/>
<g>
	<path class="st1" d="M397.84,133.41c-8.42-19.63-23.34-33.44-40.99-44.57c-17-10.72-35.44-18.27-54.81-23.51
		c-18-4.87-36.33-8.03-54.92-9.19c-15.94-1-55.07,1.28-58.62,1.88c-12.14,2.05-24.26,4.19-36.1,7.7
		c-23.99,7.13-45.85,17.79-63.35,36.37c-12.31,13.07-20.37,27.99-22.98,45.85c-3.21,21.98,3.01,40.25,20.91,53.97
		c1.72,1.32,2.17,2.73,1.74,4.46c-2.61,10.46-12.48,121.98-12.48,121.98l0,0c-0.3,0.71-3.01,35.61-3.23,41.06
		c-0.53,13.14-1.26,26.27-0.72,39.42c0.44,10.59,7.88,20.86,17.19,23.04c7.91,1.85,15.83,3.89,24,4.6
		c15.52,1.35,31.02,2.83,46.52,4.28c42.64,3.99,85.29,7.93,127.92,12.06c5.62,0.54,26.98,1.48,42.41-2.7
		c9.22-2.49,17.93-6.38,26.29-10.93c12.21-6.64,13.03-16.88,12.92-16.99c0.2-22.22,1.89-179.11,1.88-179.36
		c-0.34-9.51-0.67-19.02-1.16-28.52c-0.12-2.39,0.75-3.71,2.83-4.68c3.78-1.75,7.24-4.03,10.45-6.7
		C404.05,185.88,407.68,156.37,397.84,133.41z"/>
	<g>
		<path class="st2" d="M377.73,115.75c-68.46-72.23-184.58-51.44-198.2-49c-25.44,4.56-49.73,12.16-70.97,27.51
			c-16.32,11.8-28.24,26.95-33.99,46.46c-0.58,1.99-1.78,5.37-1.56,10.99c81.38-98.33,296.84-58.91,313.81-17.68
			c5.9,14.33,6.85,28.43,3.15,43.17c-0.26,1.04-1.47,2.15-0.03,3.23c2.43-4.36,4.09-8.97,4.8-13.93
			C397.61,146.74,391.12,129.88,377.73,115.75z M152.62,75.04c0.09-0.06,0.17-0.11,0.27-0.14C152.79,74.93,152.7,74.98,152.62,75.04
			z"/>
		<path class="st3" d="M180.21,85.76c0,0-83.52,46.05-80.41,67.71c3.12,21.67,23.64,30.53,22.72,46.12
			c-0.92,15.6-29.89,195.16-24.95,215.2c0,0-8.85,6.76-14.41-1.03s15.3-211.38,15.3-211.38S83.6,185.9,80.35,174.51
			c-3.25-11.39-5.23-32.22,0-39.45C114.06,88.52,180.21,85.76,180.21,85.76z"/>
	</g>
	<path class="st2" d="M337.77,151.75l-0.01-0.01c-0.95-8.85-2.72-20.51-12.12-30.05c-0.7-0.71-214.03,197.53-230.07,222.79
		c-0.07,0.12-2.98,14.63-2.02,58.85c0.04,1.71-0.09,3.25-1.03,4.97c-2.36,4.33-5.65,0.93-5.65,0.93c1.39,3.5,4.01,4.98,7.85,5.6
		c6.29,1.02,86.53,9.48,91.6,10.31c0.22,0.04,0.44,0.06,0.66,0.06c10.99,0.3,78.8,11.02,88.82,8.9c10.21-1.55,20.08,2.31,29.17,1.03
		c2.51-0.35,4.42-2.44,4.51-4.97c0.92-25.72,0.01-164.28-1.79-180.65c-0.57-8.92-1.01-17.85-1.75-26.76
		c-0.33-4.01-0.42-8.01-0.36-12.01c0.04-3.11,2.62-6.91,5.96-8.88c14.26-8.43,18.56-17.63,19.39-18.99
		c0.07-0.12,0.15-0.23,0.23-0.34C341.6,168.54,337.77,151.75,337.77,151.75z"/>
	<g>
		<path class="st4" d="M82.23,414.81C82.23,414.8,82.23,414.8,82.23,414.81c-0.01-0.01-0.02-0.01-0.02-0.01
			C82.21,414.8,82.23,414.81,82.23,414.81z"/>
		<polygon class="st4" points="326.5,202.79 326.5,202.79 326.5,202.79 		"/>
		<path class="st4" d="M320.06,206.07c0,0,0.04-0.03,0.04-0.03c-0.01,0-0.01,0-0.02,0C320.07,206.05,320.07,206.06,320.06,206.07z"
			/>
		<path class="st4" d="M324.09,203.65c0,0,0.03-0.02,0.03-0.02c-0.01,0-0.02,0-0.03,0C324.1,203.64,324.1,203.65,324.09,203.65z"/>
		<path class="st4" d="M316.07,207.65c-0.01,0-0.01,0-0.02,0c0,0.01-0.01,0.03-0.01,0.04C316.04,207.69,316.07,207.65,316.07,207.65
			z"/>
		<polygon class="st4" points="322.45,102.05 322.45,102.05 322.45,102.05 		"/>
		<path class="st4" d="M329.7,109.29c0,0,0,0.01,0,0.01c0,0,0.01,0,0.01,0L329.7,109.29z"/>
		<path class="st4" d="M347.95,149.8c-0.54-9.09-2.19-13.57-5.31-21.85c-0.43-0.2-7.66-17.85-29.37-31.91
			c-3.95-2.56-8.77-5.65-12-7.63c-9.15-5.63-19.38-8.61-29.58-11.63l0,0c-0.49-0.66-19.78-5-19.78-5
			c-35.79-6.24-58.8-3.41-65.39-2.31c-5.67,0.68-11.19,1.48-13.55,2.01c-7.15,1.61-14.3,3.2-21.45,4.8
			c-0.36,0.04-1.88,0.55-2.28,0.76c-4.9,1.43-14.17,5.09-14.21,5.13c-2.78,1.21-5.44,2.48-7.94,3.79c-0.02,0-0.03,0.01-0.05,0.01
			c-0.02,0.01-0.03,0.02-0.05,0.04c-7.04,3.59-13.49,8.24-18.86,12.72v0c-9.8,7.17-17.17,16.33-22.51,24.76
			c-0.02,0.04-0.05,0.07-0.07,0.11c-8.03,12.73-11.4,23.78-11.4,23.78c-2.49,7.2-1.9,14.53-0.29,21.7
			c2.9,12.89,10.48,22.66,21.24,30.12c0.04,0.03-0.15,0.03-0.15,0.07c0,0.98-1.24,3.8-2.56,26.71
			c-0.6,10.43-10.7,97.31-11.02,116.64c-0.29,4.44-0.78,27.71-0.74,29.25c0.24,9.79-0.22,19.59,0.1,29.38l-0.01-0.02
			c0,0-0.85,17.15,7.92,19.25c0.01,0.02,0.01,0.03,0.02,0.05c0,0-0.01-0.05-0.01-0.05c10.97,1.04,21.93,2.37,32.93,3
			c7.18,0.42,29.23,2.72,33.15,3.21c-1.1,0.08,34.29,4.08,60.76,6.41l0,0c0,0,73.73,13.76,96.02,8.65c0,0,1.53,1.6,1.78-9.98
			c-0.02-0.53,3.51-154.32,3.49-154.85c0.52-13.12-1.43-44.91-2.98-58.97c-1.09-9.88,5.17-12.3,6.95-13.61
			c19.95-14.59,23.27-24.07,24.18-26.25C348.73,168.93,348.52,159.4,347.95,149.8z M337.96,163.1c0.15,20.22-27.11,41.27-27.51,41.3
			c-2.45,1.49-4.83,3.14-4.88,6.35c-0.06,4,0.03,8,0.36,12.01c0.74,8.91,1.19,17.84,1.75,26.76c2.74,15.47-2.44,166.48-1.93,182.64
			c-18.68,0.83-68.05,3.06-96.54-6.23c-16.48-0.74-32.55-3.47-48.97-4.98c-8.36-0.77-16.68-1.52-25.05-2.25
			c-5.82-0.51-11.56-1.91-17.44-1.85c-7.67-0.68-15.35-0.99-23.03-2.01c-9.67-1.28-9.55-12.61-9.6-13.22
			c-0.83-10.46,0.08-20.91,0.49-31.36c0.37-9.52,1.03-19.04,1.57-28.55c0,0,0.01,0,0.01,0c0.66-10.29,9.64-101.47,10.42-111.74
			c0.69-9.08,1.6-18.17,3.67-27.04c0.82-3.49-0.14-5.35-2.74-7.42c-12.26-9.81-19-22.25-18.11-38.38
			c0.68-12.36,5.21-23.25,12.45-33.02c13.48-18.17,31.73-29.79,52.78-37.24c24.08-8.52,48.99-11.59,74.43-10.37
			c10.57,0.5,21.11,1.56,31.46,3.9c0.41,0.16,19.39,3.59,49.05,18.67c11.5,5.85,20.03,14.8,26.95,25.48
			C335.59,136.16,338.94,149.04,337.96,163.1z"/>
	</g>
	<path class="st5" d="M270.05,226.77c-4.65,2.92-6.07,8.98-3.4,13.77c0.03,0.05,0.06,0.11,0.09,0.16
		c2.55,4.66,1.41,10.47-2.39,14.18c-25.48,24.91-152.62,106.59-169.81,94.49c1.83-0.86,15.23-132.22,15.69-137.11
		c0.68-7.2,1.35-14.73-3.27-21.34c-2.59-3.7-5.57-7.08-8.34-10.61c-10.77-13.7-9.08-27.92-2.5-40.77
		c5.19-10.12,13.48-18.07,22.23-25.12c6.44-5.2,13.45-9.75,20.83-13.82c7.75-4.27,15.61-8.04,23.93-10.75
		c7.65-2.49,15.68-3.84,23.57-5.29c9.27-1.7,18.81-2.21,28.26-2.59c9.76-0.39,19.56-0.41,29.3,0.72c5.29,0.61,10.67,0.87,15.83,2.08
		c5.77,1.35,30.25,9.18,35.79,11.46c1.58,0.94,3.1,1.99,4.73,2.82c11.5,5.85,20.03,14.8,26.95,25.48
		c0.14,14.16,2.56,30.64-9.57,30.64c-22.12,0-4.56,31.88-17.93,31.54C277.62,186.13,279.25,221,270.05,226.77z"/>
	<path class="st6" d="M254.42,251.86c-0.42,0.44,6.15-12.76,9.83-0.55c0.02,0.05,0.02,1.3-1.01,1.3c-1.01,0-1.42-1.01-1.51-1.4
		C260.78,247.17,257.39,248.73,254.42,251.86z"/>
	<path class="st6" d="M168.66,394.57c-0.3-0.31-0.59-0.62-0.89-0.93C168.07,393.95,168.37,394.26,168.66,394.57z"/>
	<path class="st7" d="M202.96,186.49c-3.28,12.71,4.66,17.12,10.07,15.5c2.1-0.63,2.55-0.32,2.98,1.9
		c2.64,13.7,13.38,22.64,23.98,24.42c14.43,2.42,28.66-6.58,33.63-20.46c3.05-8.53,3.48-17.29,0.37-25.91
		c-1.17-3.23,0.11-4.29,2.79-5.23c3.83-1.33,11.76-9,12.46-8.94c4.12,7.77-3.4,10.63-6.02,11.39c-3.78,1.1-5.71,2.8-4.47,7.23
		c1.26,4.5,1.17,9.26,1.12,13.95c-0.78,6.35-2.63,11.96-5.53,16.81c-8.1,13.51-24.67,19.73-39.7,14.98
		c-9.18-2.9-16.69-9.77-21.34-21.66c-0.9-2.3-1.12-3.89-3.5-3.66C201.41,207.65,188.81,197.77,202.96,186.49z"/>
	<path class="st7" d="M120.1,167.78c3.68,0.76,7.07,8.14,10.74,8.97c2.91,0.66,4.06,1.81,2.93,5.33
		c-3.51,10.87-3.55,21.64,3.53,31.37c5.45,7.49,12.85,11.41,22.2,9.83c9.83-1.66,15.36-8.24,17.38-17.67
		c0.56-2.59-0.36-2.18,1.88-3.46c8.83-5.06,6.43-14.8,6.43-14.8s8.34,0.97,6.96,11.53c-0.34,2.63-2.72,4.49-5.54,5.8
		c-1.55,0.72-3.22,1.06-4.9,1.41c-1.73,0.35-2.4,2.27-3.19,5.07c-3.82,9.11-10.44,15.34-20.56,16.42
		c-10.99,1.17-18.91-4.07-24.76-13.12c-3.92-6.05-5.22-12.48-5.11-19.13c0.06-4.05,0.99-8.01,2.49-11.77
		c1.06-2.65,0.49-4.08-5.77-5.55C122.78,177.54,115.62,176.22,120.1,167.78z"/>
	<path class="st7" d="M162.18,112.26c-1.29-0.41-3.24-0.27-3.83-2.09c-0.51-1.55,0.56-2.85,1.64-3.86c2.43-2.28,5.28-3.67,8.7-3.41
		c1.55,0.12,2.86,0.83,3.4,2.41c0.57,1.68-0.42,2.81-1.6,3.76C168.12,110.97,165.4,112.01,162.18,112.26z"/>
	<path class="st7" d="M247.49,150.09c-1.24-0.15-2.18-1-2.25-2.53c-0.13-2.73,4.73-7.42,7.58-7.32c1.73,0.06,2.69,1.05,2.71,2.81
		C255.55,145.82,250.83,150.1,247.49,150.09z"/>
	<path class="st7" d="M105.24,155.17c-1.34-0.1-1.87-1.03-1.89-2.42c-0.03-2.39,2.91-6.16,4.93-6.18c1.68-0.01,2.33,1.04,2.3,2.61
		C110.54,151.51,107.34,155.22,105.24,155.17z"/>
	<path class="st7" d="M133.01,140.94c-0.53,1.9-1.77,3.09-3.91,3.05c-1.27-0.02-2.54-0.39-2.14-2.04c0.48-1.98,1.94-3.18,3.93-3.39
		C132.3,138.41,132.98,139.41,133.01,140.94z"/>
	<path class="st7" d="M161.22,238.21c-0.27,1.78-1.32,2.62-3.01,2.51c-1.73-0.11-2.7-1.15-2.49-2.88c0.19-1.61,1.21-2.77,2.92-2.57
		C160.22,235.45,161.16,236.56,161.22,238.21z"/>
	<path class="st7" d="M303.21,124.54c-0.29,2.03-1.52,2.63-3.15,2.49c-1.45-0.13-3.23-0.36-3.16-2.24c0.06-1.86,1.6-2.59,3.38-2.63
		C302.03,122.13,302.94,123.05,303.21,124.54z"/>
	<path class="st6" d="M122.48,240.72c1.33,0.08,2.39,0.63,2.32,2.08c-0.07,1.46-1.03,2.44-2.52,2.53c-1.24,0.08-1.93-0.77-2.03-1.95
		C120.12,241.84,120.89,240.92,122.48,240.72z"/>
	<path class="st7" d="M161.68,278.49c-1.44-0.19-2.15-0.99-2.06-2.39c0.09-1.45,1.16-2.1,2.39-2.11c1.21-0.01,2.47,0.53,2.32,2.05
		C164.18,277.52,163.04,278.23,161.68,278.49z"/>
	<path class="st7" d="M237.15,398.8c-1.44-0.19-2.15-0.99-2.06-2.39c0.09-1.45,1.16-2.1,2.39-2.11c1.21-0.01,2.47,0.53,2.32,2.05
		C239.66,397.83,238.52,398.53,237.15,398.8z"/>
	<path class="st7" d="M139.52,326.35c-1.44-0.19-2.15-0.99-2.06-2.39c0.09-1.45,1.16-2.1,2.39-2.11c1.21-0.01,2.47,0.53,2.32,2.05
		C142.02,325.38,140.88,326.09,139.52,326.35z"/>
	<path class="st7" d="M147.22,347.68c-1.44-0.19-2.15-0.99-2.06-2.39c0.09-1.45,1.16-2.1,2.39-2.11c1.21-0.01,2.47,0.53,2.32,2.05
		C149.73,346.7,148.59,347.41,147.22,347.68z"/>
	<path class="st7" d="M173.11,119.01c-0.95-0.04-2.01-0.15-1.96-1.37c0.07-1.5,1.14-2.38,2.56-2.49c1.17-0.09,2.09,0.63,1.93,1.9
		C175.47,118.41,174.44,118.99,173.11,119.01z"/>
	<path class="st6" d="M239.13,114.89c1.28-0.05,1.98,0.57,1.98,1.85c-0.01,1.22-0.7,2.02-1.89,2.09c-1.2,0.07-2.02-0.67-2.04-1.88
		C237.14,115.74,237.96,115.09,239.13,114.89z"/>
	<path class="st6" d="M269.67,122.89c-1.17-0.22-2-0.88-1.83-2.15c0.16-1.24,1.11-1.79,2.31-1.75c1.17,0.04,1.65,0.85,1.61,1.88
		C271.71,122.12,270.94,122.78,269.67,122.89z"/>
	<path class="st6" d="M167.63,151.52c-0.19,1.18-0.82,1.99-2.04,1.95c-0.97-0.03-1.77-0.59-1.85-1.67c-0.08-1.24,0.67-2,1.82-2.12
		C166.79,149.57,167.47,150.33,167.63,151.52z"/>
	<path class="st6" d="M154.81,129.15c-0.45,1.25-1.03,2.35-2.37,2.44c-1.11,0.07-1.66-0.83-1.53-1.84c0.18-1.36,1.13-1.99,2.5-1.98
		C154.39,127.77,154.79,128.3,154.81,129.15z"/>
	<path class="st6" d="M228.76,134.01c-0.2,1.25-0.91,1.82-1.95,1.75c-1.02-0.06-1.79-0.69-1.81-1.77c-0.02-1.01,0.48-1.9,1.61-1.88
		C227.82,132.14,228.37,133.1,228.76,134.01z"/>
	<path class="st7" d="M200.04,131.37c1.06,0.35,1.99,0.93,1.93,2.16c-0.05,1.06-0.83,1.64-1.91,1.51c-1.06-0.13-1.63-0.91-1.7-1.9
		C198.28,132.06,198.93,131.46,200.04,131.37z"/>
	<path class="st6" d="M258.27,348.81c1.28-0.05,1.98,0.57,1.98,1.85c-0.01,1.22-0.7,2.02-1.89,2.09c-1.2,0.07-2.02-0.67-2.04-1.88
		C256.29,349.66,257.1,349,258.27,348.81z"/>
	<path class="st6" d="M173.95,363.06c-0.45,1.25-1.03,2.35-2.37,2.44c-1.11,0.07-1.66-0.83-1.53-1.84c0.18-1.36,1.13-1.99,2.5-1.98
		C173.53,361.69,173.93,362.22,173.95,363.06z"/>
	<path class="st6" d="M243.03,323.72c-0.45,1.25-1.03,2.35-2.37,2.44c-1.11,0.07-1.66-0.83-1.53-1.84c0.18-1.36,1.13-1.99,2.5-1.98
		C242.61,322.34,243.01,322.87,243.03,323.72z"/>
	<path class="st7" d="M219.18,365.29c1.06,0.35,1.99,0.93,1.93,2.16c-0.05,1.06-0.83,1.64-1.91,1.51c-1.06-0.13-1.63-0.91-1.7-1.9
		C217.42,365.98,218.07,365.38,219.18,365.29z"/>
	<path class="st6" d="M244.24,100.48c-0.09,1.21-0.55,2.03-1.64,2c-1.14-0.04-1.97-0.8-2.07-1.95c-0.08-0.88,0.62-1.41,1.46-1.56
		C243.29,98.75,243.82,99.64,244.24,100.48z"/>
	<path class="st6" d="M281.21,147.95c1.05,0.04,1.77,0.47,1.76,1.63c-0.01,1.16-0.73,1.64-1.79,1.55c-0.95-0.08-1.88-0.44-1.85-1.6
		C279.36,148.42,280.22,148.05,281.21,147.95z"/>
	<path class="st6" d="M185.98,243.78c-0.21,1.14-0.78,1.66-1.68,1.66c-1.25,0-2.09-0.67-2.02-1.96c0.05-0.97,0.88-1.28,1.77-1.2
		C185.09,242.36,185.71,242.97,185.98,243.78z"/>
	<path class="st7" d="M178.75,283.48c-0.21,0.67-0.43,1.35-0.64,2.02c-1.32,0.39-2.43,0.13-2.98-1.2c-0.15-0.36,0.07-1.16,0.39-1.39
		C176.71,282.05,177.77,282.68,178.75,283.48z"/>
	<path class="st6" d="M132.17,253.34c-0.14,1-0.75,1.69-1.8,1.72c-1.03,0.03-1.88-0.49-1.78-1.64c0.1-1.1,0.97-1.5,2-1.49
		C131.49,251.92,132.15,252.25,132.17,253.34z"/>
	<path class="st6" d="M249.73,401c-0.14,1-0.75,1.69-1.8,1.72c-1.03,0.03-1.88-0.49-1.78-1.64c0.1-1.1,0.97-1.5,2-1.49
		C249.05,399.58,249.7,399.91,249.73,401z"/>
	<path class="st6" d="M133.96,355.77c-0.14,1-0.75,1.69-1.8,1.72c-1.03,0.03-1.88-0.49-1.78-1.64c0.1-1.1,0.97-1.5,2-1.49
		C133.28,354.36,133.94,354.69,133.96,355.77z"/>
	<path class="st6" d="M132.98,269.86c-0.01,1.06-0.46,1.87-1.51,1.96c-1.12,0.1-1.62-0.75-1.68-1.74c-0.05-0.87,0.49-1.58,1.31-1.72
		C132.17,268.17,132.77,268.86,132.98,269.86z"/>
	<path class="st6" d="M153.15,373.07c-0.01,1.06-0.46,1.87-1.51,1.96c-1.12,0.1-1.62-0.75-1.68-1.74c-0.05-0.87,0.49-1.58,1.31-1.72
		C152.34,371.38,152.94,372.07,153.15,373.07z"/>
	<path class="st6" d="M235.41,416.33c-0.01,1.06-0.46,1.87-1.51,1.96c-1.12,0.1-1.62-0.75-1.68-1.74c-0.05-0.87,0.49-1.58,1.31-1.72
		C234.61,414.63,235.2,415.32,235.41,416.33z"/>
	<path class="st6" d="M200.09,227.8c-1.2-0.12-2.12-0.41-2.13-1.55c0-0.95,0.94-1.24,1.66-1.37c1.11-0.2,1.69,0.54,1.78,1.56
		C201.5,227.51,200.64,227.63,200.09,227.8z"/>
	<path class="st7" d="M281.44,251.73c0.02-3.86,2.39-7.28,4.84-6.95c2.93,0.4,3.77,2.71,3.91,5.23c0.12,2.14-3.86,6.15-5.77,5.77
		C282.22,255.35,280.92,253.95,281.44,251.73z"/>
	<path class="st7" d="M288.43,340.56c0.02-3.86,2.39-7.28,4.84-6.95c2.93,0.4,3.77,2.71,3.91,5.23c0.12,2.14-3.86,6.15-5.77,5.77
		C289.2,344.19,287.91,342.78,288.43,340.56z"/>
	<path class="st7" d="M289.88,416.26c0.02-3.86,2.39-7.28,4.84-6.95c2.93,0.4,3.77,2.71,3.91,5.23c0.12,2.14-3.86,6.15-5.77,5.77
		C290.65,419.88,289.36,418.47,289.88,416.26z"/>
	<path class="st7" d="M184.23,346.87c0.02-3.86,2.39-7.28,4.84-6.95c2.93,0.4,3.77,2.71,3.91,5.23c0.12,2.14-3.86,6.15-5.77,5.77
		C185,350.49,183.71,349.09,184.23,346.87z"/>
	<path class="st7" d="M188.66,386.74c0.02-3.86,2.39-7.28,4.84-6.95c2.93,0.4,3.77,2.71,3.91,5.23c0.12,2.14-3.86,6.15-5.77,5.77
		C189.43,390.36,188.14,388.96,188.66,386.74z"/>
	<path class="st7" d="M243.61,392.47c0.02-3.86,2.39-7.28,4.84-6.95c2.93,0.4,3.77,2.71,3.91,5.23c0.12,2.14-3.86,6.15-5.77,5.77
		C244.39,396.09,243.09,394.69,243.61,392.47z"/>
	<path class="st7" d="M242.05,288.25c-2.63-0.12-4.31-1.04-4.08-3.35c0.26-2.51,1.48-4.71,4.48-4.74c2.5-0.03,4.19,1.41,4.18,3.9
		C246.62,287.18,243.81,287.46,242.05,288.25z"/>
	<path class="st7" d="M275.36,279.36c2.14-0.02,3.54,0.45,3.59,2.34c0.06,2.24-1.75,2.94-3.48,3.16c-1.69,0.22-2.86-0.96-2.85-2.64
		C272.64,280.29,274.11,279.56,275.36,279.36z"/>
	<path class="st7" d="M317.8,171.47c1.79,0.18,2.97,1.11,3.05,3c0.07,1.59-0.85,2.44-2.44,2.54c-1.86,0.11-3.14-0.56-3.28-2.59
		C315,172.57,316.19,171.85,317.8,171.47z"/>
	<path class="st7" d="M294.76,214.89c1.25,0.31,2.42,1.09,2.37,2.62c-0.06,1.52-1.08,2.31-2.73,2.25c-1.84-0.07-2.32-1.35-2.22-2.7
		C292.25,215.83,293.05,214.8,294.76,214.89z"/>
	<path class="st7" d="M279.5,264.08c-0.2,1.1-0.94,1.6-1.97,1.6c-1.33,0-1.92-0.76-1.79-2.06c0.11-1.06,0.72-1.87,1.78-1.73
		C278.64,262.04,279.37,262.87,279.5,264.08z"/>
	<path class="st7" d="M297.76,351.01c-0.2,1.1-0.94,1.6-1.97,1.6c-1.33,0-1.92-0.76-1.79-2.06c0.11-1.06,0.72-1.87,1.78-1.73
		C296.89,348.97,297.63,349.8,297.76,351.01z"/>
	<path class="st7" d="M318.03,147.11c-1.17-0.09-1.84-0.64-1.98-1.71c-0.14-1.07,0.36-1.89,1.44-2c1.09-0.11,1.68,0.67,1.82,1.69
		C319.45,146.13,319.06,146.89,318.03,147.11z"/>
	<path class="st7" d="M295.63,194.98c1.22,0.09,1.82,0.72,1.83,1.76c0.01,1.03-0.63,1.7-1.64,1.89c-0.95,0.17-1.51-0.37-1.6-1.26
		C294.09,196.21,294.61,195.39,295.63,194.98z"/>
	<path class="st7" d="M282.77,349.75c1.22,0.09,1.82,0.72,1.83,1.76c0.01,1.03-0.63,1.7-1.64,1.89c-0.95,0.17-1.51-0.37-1.6-1.26
		C281.23,350.98,281.75,350.16,282.77,349.75z"/>
	<path class="st6" d="M156.41,393.7c-1.21,1.24-1.41,0.29-1.56-0.73C155.47,392.98,156.06,393.09,156.41,393.7z"/>
	<path class="st7" d="M116.88,382.55c0.03-3.48,1.96-5.68,4.92-5.61c3.05,0.07,6.62,4.18,6.38,7.71c-0.19,2.68-1.19,5.06-4.54,5.03
		C120.1,389.66,116.84,386.17,116.88,382.55z"/>
	<path class="st7" d="M155.56,403.1c-0.22,1.46-1.08,2.45-2.52,2.68c-1.29,0.21-2.1-0.71-2.05-1.87c0.06-1.43,0.96-2.54,2.44-2.73
		C154.7,401.01,155.32,401.9,155.56,403.1z"/>
	<path class="st7" d="M174.12,408.68c-0.21,1.36-0.85,2.12-2.15,1.94c-1.22-0.17-1.83-1.02-1.81-2.23c0.03-1.16,0.45-2.27,1.79-2.1
		C173.24,406.45,173.95,407.49,174.12,408.68z"/>
	<path class="st7" d="M105.85,369.64c-1.39-0.04-2.28-0.55-2.43-1.76c-0.16-1.33,0.91-1.87,1.93-2.03c1-0.16,1.74,0.51,1.85,1.57
		C107.31,368.55,106.99,369.48,105.85,369.64z"/>
	<g>
		<path class="st8" d="M320.06,206.07C320.06,206.07,320.06,206.07,320.06,206.07c0.01-0.01,0.03-0.02,0.04-0.03L320.06,206.07z"/>
		<path class="st8" d="M316.04,207.69C316.04,207.69,316.05,207.69,316.04,207.69c0.01-0.01,0.02-0.03,0.03-0.04L316.04,207.69z"/>
		<path class="st8" d="M341.05,189.13c0.01,0,0.01-0.01,0.01-0.01c0-0.01,0-0.02,0-0.03L341.05,189.13z"/>
		<path class="st8" d="M386.83,134.05c-0.4-0.83-0.76-1.69-1.26-2.48c-2.67-0.38-4.31-2.61-6.45-3.81c-3.57-2-7.14-3.99-10.71-5.98
			c-4.51-1.08-8.71-3.33-13.64-2.84c-5.36,0.53-9.24,5.39-8.72,10.75c0.4,4.17,1.45,8.3,2.08,12.46
			c6.42,42.78-10.37,50.43-32.71,64.98c-1.37,0.89-1.62,2.38-1.65,3.25c-1.42,3.08,2.33,35.75,2.34,49.91c0,0.4,0.38,3.73,0.38,4.61
			c0.59,3.8-4.43,148.7-4.95,165.41c-5.62,1.22-10,1.93-11.86,1.81c-13.69-0.9-47.83-2.98-48.1-3
			c-13.99-1.42-96.95-8.69-111.03-9.96c0.21,1.47,77.2,10.22,86.93,12.76c0.89,0.23,1.77,0.46,2.66,0.67
			c7.17,1.69,14.45,3.83,21.7,4.67c8.6,0.99,17.2,2.05,25.82,2.78c1.64,0.14,3.28,0.36,4.89,0.73c26.56,6.02,62.14-4.46,76.57-17.98
			c2.22-2.08,4.24-4.37,5.43-6.71c0.27-0.45,0.52-0.91,0.75-1.38c-0.01-0.12-0.01-0.25-0.02-0.4c0.21-0.67,0.34-1.34,0.38-2.01
			c0,0-0.16,0.07-0.42,0.18c-0.35-22.53,3.44-166.13,2.76-177.78c-0.16-2.66-0.41-25.02-0.76-24.99
			c-9.03,0.79-31.82-3.39-32.33-3.34c-7.35,0.75-10.55,7.92-10.33,14.6c0,0.03,0.99,29.87,1.67,45.74
			c0.21,4.91,0.44,55.54-1.88,98.48c-1.46,26.94-4.11,50.58-4.53,63.17c-1.18,0.29-2.34,0.57-3.47,0.84c0.3-0.78,0.5-1.75,0.53-2.97
			c0.24-9.32,3.33-63.39,4.61-113.39c1.15-44.97,0.55-86.31,0.22-94.66c-0.02-0.59-0.05-1.16-0.09-1.74
			c-0.34-4.64,2.26-8.94,6.46-10.96c15.4-7.4,25.53-19.79,31.08-36.84c0.77,1.93-0.24,3.74,0.83,5.49c2.33-1.39,3.79-5.06,7.14-3.24
			c4.09,2.23,2.15,6.27,2.07,9.97c3.65-2.62,4.15-6.96,6.81-9.92c1.03,1.86-1.09,3.33,0.32,5.29c2.18-2.12,4.81-4.02,7.64-1.72
			c2.9,2.35,2.33,5.67,1.57,8.94c-0.26,1.12-1.11,2.33-0.34,4.04c2.13-2.31,4.21-4.14,4.72-7.06c-1.45-1.08-0.23-2.19,0.03-3.23
			C393.68,162.48,393.53,148.03,386.83,134.05z M376.84,169.21c-0.04-0.1-0.11-0.19-0.1-0.28c0.01-0.09,0.11-0.16,0.17-0.25
			c0.04,0.1,0.07,0.19,0.11,0.29C376.95,169.05,376.9,169.13,376.84,169.21z"/>
		<path class="st8" d="M324.09,203.65c0.01,0,0.01,0,0.02,0c0-0.01,0.01-0.01,0.01-0.02L324.09,203.65z"/>
		<path class="st8" d="M81.47,341.26c0.08-0.04,0.24-0.1,0.24-0.13c-0.02-0.16-0.08-0.32-0.13-0.48
			C81.4,340.82,81.36,341.03,81.47,341.26z"/>
		<path class="st8" d="M362.73,115c1.05,0.18,2.1,0.35,3.15,0.53c1.21,0,0.75-1.46,0.53-1.78c-2.21-3.18-5.21-5.28-9.05-6.05
			c-0.62-0.12-1.5-0.23-1.68,0.56c-0.13,0.55,0.12,1.35,0.49,1.81C357.93,112.27,359.97,114.13,362.73,115z"/>
		<path class="st8" d="M336.83,104.14c0.65,0.22,1.14,0.04,1.35-0.53c0.2-0.52,0.05-1.11-0.24-1.59c-1.1-1.79-2.86-2.84-5.13-3.14
			c-0.93-0.12-2.31,0.09-1.97,1.27C331.66,103.03,334.49,103.34,336.83,104.14z"/>
	</g>
	<path class="st9" d="M316.5,262.27c-0.15-0.26-0.31-0.51-0.46-0.77C316.19,261.76,316.34,262.01,316.5,262.27z"/>
	<path class="st10" d="M330.79,86.46c-2.95-0.42-4.76,2.44-7.5,2.63c-4.19-2.92-4.43-2.92-5.64,0.04c-1.74,1.31,1.94,5.32-2.96,5
		c6.81,4.73,5.45,6.93,5.1,6.7c-5.89-3.8-12.55-8.75-18.51-12.43c-9.15-5.63-19.38-8.61-29.58-11.63
		c-4.87-1.63-6.14-1.73-11.29-3.04c16.29,0.47,21.05,3.82,26.56,5.88c2.7,1.33,5.48,2.38,8.57,2.32
		c-2.97-5.71-20.81-10.51-27.55-11.59c-0.03-0.3-32.61-3.12-32.61-3.12s13.6-1.92,36.12,1.27c6.03,0.85,24.74,3.25,52.67,14.61
		C325.53,83.67,327.97,84.84,330.79,86.46z"/>
	<path class="st9" d="M109.69,98.02c-0.34,0.24-0.67,0.47-1.01,0.71C109.01,98.49,109.35,98.25,109.69,98.02z"/>
	<path class="st10" d="M320.03,100.44c0.27,0.27,0.53,0.53,0.8,0.8C320.57,100.97,320.3,100.7,320.03,100.44z"/>
	<g>
		<path class="st9" d="M330.79,86.46c-2.95-0.42-4.76,2.44-7.5,2.63c-0.06,0.63-0.22,1.04-0.48,1.29c0.25-0.25,0.42-0.66,0.48-1.29
			c-4.19-2.92-4.43-2.92-5.64,0.04c-1.74,1.31,1.94,5.32-2.96,5c1.78,2.44,5.09,3.11,5.33,6.3l-0.08,0.38
			c0.21,0.43,3.54,2.63,10.14,9.41c5.67,5.83,9.78,12.8,12.56,20.38c1.58,4.33,5.03,14.46,5.31,19.2c0.57,9.6,0.77,19.13-3.01,28.27
			c-0.33,0.8-0.81,1.55-1.11,2.37c-5.37,11.46-25.84,25.08-25.84,25.08c40.99-19.43,32.45-50.13,30.15-63.35
			c-0.73-4.18-1.71-8.36-2.09-12.57c-0.48-5.3,3.38-10.08,8.68-10.63c4.19-0.43,7.86,1.12,11.63,2.26c1.58,0.48,3.1,1.15,4.54,1.95
			c2.75,1.53,5.49,3.06,8.24,4.6c2.15,1.2,3.8,3.46,6.47,3.84C383.48,125.81,363.17,102.05,330.79,86.46z M336.83,104.14
			c-2.34-0.8-5.17-1.12-5.98-3.98c-0.34-1.18,1.04-1.39,1.97-1.27c2.52,0.33,4.43,1.6,5.48,3.79
			C338.35,103.96,337.76,104.46,336.83,104.14z M356.18,110.07c-0.37-0.46-0.62-1.26-0.49-1.81c0.18-0.78,1.06-0.68,1.68-0.56
			c3.84,0.77,6.84,2.87,9.05,6.05c0.22,0.32-0.34,1.17-0.53,1.78c-1.05-0.18-2.1-0.36-3.15-0.53c0,0,0,0,0,0
			C359.97,114.13,357.93,112.27,356.18,110.07z"/>
	</g>
	<path class="st6" d="M337.96,163.1c0.63-4.68-0.12-9.62-0.34-12.67c-0.64-8.98-7.6-24.59-10.07-25.89
		c12.92,31.84,1.28,59.92-15.82,73.65c-3.07,2.47-6.28,4.53-8.1,7.88c-1.43,2.64-1.04,6.77-1.25,9.86
		c-1.19,17.86,3.3,216.43,3.37,216.22c1.4-4.54,2.75-141.31,3.45-178.7c0.44-23.91,2.11-42.15,2.11-42.15
		c0.31-4.28,0.42-6.72,6.25-10.47C330.47,192.52,338.08,180.75,337.96,163.1z"/>
	<path class="st1" d="M199.03,194.94c0-3.08,1.13-5.88,3.93-8.45c-0.03,2.49-0.99,5.11,1.78,6.24c2.28,0.93,4.54,0.2,6.6-0.79
		c12.52-6.01,25.02-12.08,37.5-18.17c4.17-2.04,8.27-4.22,12.4-6.34c6.43-2.71,7.24-2.72,8.49-3.08c5.18-1.49,10.41-2.56,15.56-0.07
		c1.88,0.91,3.21,2.13,3.96,3.5c1.71,3.15-0.43,7.06-3.97,7.63c-2.82,0.45-5.75,0.36-8.49,1.31c-2.69,0.93-3.96,2-2.79,5.23
		c3.11,8.62,2.68,17.38-0.37,25.91c-4.97,13.88-19.19,22.88-33.63,20.46c-10.6-1.78-21.34-10.72-23.98-24.42
		c-0.43-2.22-0.87-2.53-2.98-1.9c-4.51,1.34-8.7,1.26-11.91-1.91C199.76,198.74,199.03,196.86,199.03,194.94z"/>
	<path class="st1" d="M178.12,193.55c1.32,0.79,2.7,0.79,4.1,0.37c0.89-0.43,4.15-1.63,2.97-6.57c2.37,1.24,3.34,3.29,4.07,5.5
		c0.18,0.54,2.35,10.82-8.66,10c-2.58-0.19-3.16,0.17-3.71,2.76c-2.03,9.43-7.56,16.01-17.38,17.67c-9.35,1.58-16.75-2.34-22.2-9.83
		c-7.08-9.73-7.04-20.5-3.53-31.37c1.14-3.52,0.01-4.77-2.93-5.33c-6.36-1.22-9.11-1.98-9.3-2.01c-1.71-0.31-2.49-2.16-2.22-4.13
		c0.48-3.52,2.09-5.53,5.7-6.73c2.14-0.71,4.17-0.63,6.17-0.2c2.38,0.52,4.6,1.57,6.61,2.94c8.73,5.97,38.65,26.37,39.59,26.48
		c0,0,0.01,0.01,0.01,0.01C177.64,193.26,177.88,193.41,178.12,193.55z"/>
	<g>
		<path class="st11" d="M228.88,200.18c0,3.83,3.1,6.93,6.93,6.93c3.83,0,6.93-3.1,6.93-6.93s-3.1-6.93-6.93-6.93
			C231.98,193.25,228.88,196.35,228.88,200.18z"/>
		<path class="st12" d="M232.76,198.55l0.17-0.53c0.03-0.11,0.12-0.19,0.23-0.22l0.53-0.16c0.07-0.02,0.07-0.13,0-0.15l-0.53-0.17
			c-0.11-0.03-0.19-0.12-0.22-0.23l-0.16-0.53c-0.02-0.07-0.13-0.07-0.15,0l-0.17,0.53c-0.03,0.11-0.12,0.19-0.23,0.22l-0.53,0.16
			c-0.07,0.02-0.07,0.13,0,0.15l0.53,0.17c0.11,0.03,0.19,0.12,0.22,0.23l0.16,0.53C232.63,198.62,232.73,198.62,232.76,198.55z"/>
		<path class="st13" d="M241.15,198.24c-0.22-0.24-0.56-0.38-0.89-0.44c-0.33-0.05-0.69-0.05-1.02,0.01
			c-0.67,0.11-1.28,0.39-1.81,0.73c-0.28,0.17-0.51,0.36-0.75,0.56c-0.12,0.1-0.22,0.21-0.34,0.31l-0.3,0.3
			c-0.33,0.35-0.66,0.66-0.97,0.92c-0.32,0.26-0.61,0.46-0.9,0.59c-0.29,0.14-0.6,0.22-1.01,0.23c-0.4,0.01-0.88-0.06-1.39-0.18
			c-0.51-0.12-1.05-0.29-1.65-0.44c0.21,0.58,0.53,1.1,0.93,1.57c0.41,0.46,0.92,0.88,1.58,1.16c0.65,0.28,1.46,0.38,2.23,0.23
			c0.76-0.15,1.43-0.5,1.98-0.91c0.54-0.41,0.98-0.88,1.35-1.37c0.1-0.14,0.16-0.21,0.23-0.32l0.2-0.3c0.14-0.19,0.27-0.4,0.41-0.59
			c0.28-0.39,0.55-0.78,0.86-1.14c0.16-0.18,0.33-0.36,0.52-0.52c0.1-0.08,0.21-0.16,0.32-0.23
			C240.87,198.35,240.99,198.29,241.15,198.24z"/>
		<path class="st12" d="M241.15,198.24c-0.24-0.59-0.67-1.09-1.26-1.46c-0.58-0.36-1.39-0.55-2.2-0.39
			c-0.4,0.08-0.78,0.22-1.12,0.42c-0.34,0.2-0.64,0.43-0.9,0.68c-0.13,0.13-0.25,0.26-0.37,0.39l-0.3,0.39l-0.47,0.62
			c-0.6,0.8-1.24,1.74-2.3,2.02c-1.04,0.27-1.49,0.03-2.12-0.07c0.12,0.3,0.26,0.59,0.45,0.84c0.19,0.26,0.42,0.51,0.7,0.72
			c0.14,0.1,0.29,0.2,0.46,0.28c0.17,0.08,0.34,0.15,0.53,0.21c0.38,0.1,0.8,0.14,1.22,0.08c0.41-0.06,0.81-0.19,1.15-0.36
			c0.35-0.17,0.65-0.38,0.92-0.6c0.54-0.45,0.96-0.94,1.31-1.44c0.18-0.25,0.34-0.5,0.49-0.76l0.18-0.3
			c0.05-0.09,0.11-0.18,0.16-0.26c0.22-0.33,0.44-0.6,0.7-0.8c0.26-0.21,0.62-0.36,1.11-0.39
			C239.98,198.04,240.54,198.1,241.15,198.24z"/>
		<path class="st13" d="M238.54,203.17c0,0.44,0.35,0.79,0.79,0.79c0.44,0,0.79-0.35,0.79-0.79c0-0.44-0.35-0.79-0.79-0.79
			C238.89,202.38,238.54,202.74,238.54,203.17z"/>
	</g>
	<g>
		<path class="st11" d="M154.74,200.29c0,3.83,3.1,6.93,6.93,6.93c3.83,0,6.93-3.1,6.93-6.93s-3.1-6.93-6.93-6.93
			C157.85,193.36,154.74,196.47,154.74,200.29z"/>
		<path class="st12" d="M158.62,198.66l0.17-0.53c0.03-0.11,0.12-0.19,0.23-0.22l0.53-0.16c0.07-0.02,0.07-0.13,0-0.15l-0.53-0.17
			c-0.11-0.03-0.19-0.12-0.22-0.23l-0.16-0.53c-0.02-0.07-0.13-0.07-0.15,0l-0.17,0.53c-0.03,0.11-0.12,0.19-0.23,0.22l-0.53,0.16
			c-0.07,0.02-0.07,0.13,0,0.15l0.53,0.17c0.11,0.03,0.19,0.12,0.22,0.23l0.16,0.53C158.49,198.73,158.59,198.73,158.62,198.66z"/>
		<path class="st13" d="M167.01,198.35c-0.22-0.24-0.56-0.38-0.89-0.44c-0.33-0.05-0.69-0.05-1.02,0.01
			c-0.67,0.11-1.28,0.39-1.81,0.73c-0.28,0.17-0.51,0.36-0.75,0.56c-0.12,0.1-0.22,0.21-0.34,0.31l-0.3,0.3
			c-0.33,0.35-0.66,0.66-0.97,0.92c-0.32,0.26-0.61,0.46-0.9,0.59c-0.29,0.14-0.6,0.22-1.01,0.23c-0.4,0.01-0.88-0.06-1.39-0.18
			c-0.51-0.12-1.05-0.29-1.65-0.44c0.21,0.58,0.53,1.1,0.93,1.57c0.41,0.46,0.92,0.88,1.58,1.16c0.65,0.28,1.46,0.38,2.23,0.23
			c0.76-0.15,1.43-0.5,1.98-0.91c0.54-0.41,0.98-0.88,1.35-1.37c0.1-0.14,0.16-0.21,0.23-0.32l0.2-0.3c0.14-0.19,0.27-0.4,0.41-0.59
			c0.28-0.39,0.55-0.78,0.86-1.14c0.16-0.18,0.33-0.36,0.52-0.52c0.1-0.08,0.21-0.16,0.32-0.23
			C166.73,198.46,166.85,198.4,167.01,198.35z"/>
		<path class="st12" d="M167.01,198.35c-0.24-0.59-0.67-1.09-1.26-1.46c-0.58-0.36-1.39-0.55-2.2-0.39
			c-0.4,0.08-0.78,0.22-1.12,0.42c-0.34,0.2-0.64,0.43-0.9,0.68c-0.13,0.13-0.25,0.26-0.37,0.39l-0.3,0.39l-0.47,0.62
			c-0.6,0.8-1.24,1.74-2.3,2.02c-1.04,0.27-1.49,0.03-2.12-0.07c0.12,0.3,0.26,0.59,0.45,0.84c0.19,0.26,0.42,0.51,0.7,0.72
			c0.14,0.1,0.29,0.2,0.46,0.28c0.17,0.08,0.34,0.15,0.53,0.21c0.38,0.1,0.8,0.14,1.22,0.08c0.41-0.06,0.81-0.19,1.15-0.36
			c0.35-0.17,0.65-0.38,0.92-0.6c0.54-0.45,0.96-0.94,1.31-1.44c0.18-0.25,0.34-0.5,0.49-0.76l0.18-0.3
			c0.05-0.09,0.11-0.18,0.16-0.26c0.22-0.33,0.44-0.6,0.7-0.8c0.26-0.21,0.62-0.36,1.11-0.39
			C165.84,198.15,166.4,198.22,167.01,198.35z"/>
		<path class="st13" d="M164.4,203.28c0,0.44,0.35,0.79,0.79,0.79c0.44,0,0.79-0.35,0.79-0.79c0-0.44-0.35-0.79-0.79-0.79
			C164.75,202.49,164.4,202.85,164.4,203.28z"/>
	</g>
	<path class="st1" d="M190.35,272.82c-5.82-0.39-21.71-3.77-25.78-9.27c21.99,3.41,43.69,2.48,64.81-5.23
		c7.1-2.59,13.89-5.87,19.72-10.85c3.93-3.36,3.91-3.77-0.54-6.28c-0.56-0.31-1.07-0.71-1.74-1.15c9.49-2.92,17.81,2.58,17.44,11.16
		c-0.01,0.28-0.19,0.55-0.47,0.62c-1.68,0.41-0.96-4.03-4.24-4.29c-1.16-0.09-2.24,0.53-2.91,1.48
		C243.47,267.55,215.33,274.69,190.35,272.82z"/>
	<path class="st1" d="M83.96,246.11c0,0-15.56,5.94-9.98,25.72c0,0-4.73,8.75-1.5,14.8c0,0-9.91,2.78-8.45,20
		c0,0,1.25,8.67,12.46,18.68c0,0,21.86,18.19,32.91,24.47c2.8,1.59,5.36,3.56,7.6,5.87c8.81,9.06,32.18,31.18,61.74,43.93
		c0,0,30.95,18.53,76.16,28.45s55.69,13.78,71.67,0c0,0,36.26,12.96,65.82,1.38c0,0-19.19-10.34-19.69-19.12
		c-0.06-1.12,0.71-2.12,1.8-2.36c1.27-0.28,3.14-0.4,5,0.53c3.31,1.65,14.33,14.37,21.23,11.87c0,0-4.41-1.95-4.96-8.29
		c0,0,47.65,21.61,80.34-26.55c0,0-60.21,7.8-86.68-48.99c0,0,19.57,8.42,32.53,5.04c12.96-3.38,26.74-21.03,26.74-21.03
		s-6.06-1.38-10.48-0.28c0,0,3.86-9.92,25.36-3.31c0,0,0.83-9.65-24.81-10.75c0,0-12.13,3.03-14.61,4.14
		c-2.48,1.1-8.82,1.38-8.55-4.96c0,0,23.98,1.14,22.88-25.2c0,0-11.3,4.84-20.12,2.34c-7.61-2.16-21.41-0.87-25.07-0.48
		c-0.56,0.06-1.11-0.17-1.47-0.62c-1.28-1.61-4.52-5.52-7.37-7.41c0,0,7.87-15.17-11.39-28.91c-0.3-0.22-0.63-0.41-0.96-0.57
		l-0.73-0.36l-3.34,1.96l-0.05,3.79c-0.07,5.57-3.31,10.63-8.35,13c-17.53,8.24-61.63,26.78-118.58,35.02
		c0,0-85.75,11.33-127.09-15.27c-2.79-1.8-5.65-3.49-8.64-4.95c-7.08-3.47-20.54-12.75-14.89-31.58H83.96z"/>
	<path class="st3" d="M412.91,287.89c-9.05-5.19-14.73-2.55-16.46,0c0.48,0.79,0.92,1.59,1.21,2.46c0.74,0.08,1.49,0.12,1.68,0.02
		c1.61-0.82,2.14-2.73,13.61,0.44c0.57,0.16,3.97,1.31,4.51,1.43c13.71,3.11,15.2-5.61,15.2-5.61S421.71,292.94,412.91,287.89z"/>
	<path class="st14" d="M419.28,293.96c-2.15-0.1-6.15-0.45-8.72-1.81c-7.59-4-11.37-3.12-13.01-2.13c0.12,0.3,0.21,0.61,0.28,0.92
		c3.04,0.41,5.58,3.94,13.93,5.99c9.57,2.34,17.44-4.9,17.44-4.9S426.27,294.29,419.28,293.96z"/>
	<path class="st15" d="M411.71,289.3c-2.72-1.87-5.73-2.26-9.8-2.27c-2.36-0.01-4.1,0.05-5.14,1.39c0.32,0.55,0.61,1.11,0.82,1.7
		c4.52-2.55,11.99,2.45,16.99,3.74c5.44,1.41,12.48-0.14,14.63-1.83c3.19-2.51,3.46-5.41,3.46-5.41S422.53,296.73,411.71,289.3z"/>
	<path class="st3" d="M78.54,277.58c0,0,12.08,26.29,22.47,35.19C101.01,312.77,72.23,295.89,78.54,277.58z"/>
	<path class="st16" d="M75.34,291.57c0,0,2.76,8.33,8.03,17.78c6.1,10.93,15.07,23.48,19.29,28.17
		C102.67,337.53,54.15,311.41,75.34,291.57z"/>
	<path class="st3" d="M75.34,291.57c0,0-0.78,8.36,1.13,11.47s10.06,16.57,10.06,16.57s-8.07-3.97-12.25-10.76
		c0,0,0.5,3.26,2.05,6.3c0,0-6.18-3.09-5.9-13.84c0.05-2.04,0.49-4.08,1.39-5.91C72.57,293.92,73.7,292.35,75.34,291.57z"/>
	<path class="st17" d="M375.7,259.65c0,0,1.7,20.57-4.73,24.55c0,0,5.42-14.66-12.48-4.05s-69.21,47.52-124.75,53.44
		c-50.31,5.36-102.11-2.41-138.92-43.46c-3.82-4.26-10.96-13.89-10.96-13.89l1.44,0.6l1.57-1.1l2.4,2.76l13.1,5.77
		c0,0,34.01,28.63,90.61,26.33C266.48,307.59,356.55,280.15,375.7,259.65z"/>
	<g>
		<path class="st17" d="M320.16,353.13c0.05-0.05,0.08-0.08,0.08-0.08C320.22,353.08,320.19,353.1,320.16,353.13z"/>
		<path class="st17" d="M320.16,353.13c-0.15,0.15-0.5,0.49-1.07,0.96C319.46,353.82,319.82,353.5,320.16,353.13z"/>
		<path class="st17" d="M373.72,393.85c-8.27-5.24-48.24-20.4-48.24-20.4c23.16-0.28,32.25-7.72,32.25-7.72
			c-30.05,4.96-64.51-3.03-64.51-3.03c14.75-0.65,23.01-6.25,25.87-8.61c-2.24,1.66-4.64,1.54-4.64,1.54
			c-5.79-3.48,9.1-8.37,9.1-8.37c-14.06-1.38-35.84,8.37-35.84,8.37c-31.7,16.92-88.49,10.1-88.49,10.1
			c37.46,2.13,81.64-12.89,115.9-31.3c36.85-19.8,64.37-45.53,65.76-32.66c0.29,2.64,0.46,5.25-0.08,7.66v0
			c0,0-10.21,9.24-9.17,18.41c1.04,9.17,9.18,30.33,31.33,42.6c0,0-22.16-23.91-25.27-41.04c0,0-3.03-7.03,3.73-15.09
			c0-0.01,0.01-0.01,0.01-0.02c0.04-0.05,0.08-0.1,0.12-0.15l0,0c8.08-9.8,7.04-25.87,7.04-25.87l-7.44-6.89
			c0.14,11.91-30.87,30.56-48.4,38.59c-90.47,41.41-129.88,31.63-129.88,31.63c18.94,1.33,53.79-11.93,53.79-11.93
			c-73.48,18.94-123.86-14.39-123.86-14.39c-35.61-15.53-54.27-47.68-54.27-47.68c-1.42,3.54-0.9,7.75-0.9,7.75
			c2.03,11.94,17.94,31.6,17.94,31.6c21.78,34.18,77.46,66.16,117.43,69.19c39.97,3.03,70.85,15.99,70.85,15.99
			c14.61,2.21,49.62,22.88,49.62,22.88c5.79-4.41,23.98-1.38,23.98-1.38l-36.7-21.65c10.54,5.38,46.34,12,46.34,12
			c-10.75-8.82-8.82-14.89-8.82-14.89s10.75-3.31,20.4,1.38c9.65,4.69,29.77,4.41,29.77,4.41S381.99,399.09,373.72,393.85z"/>
	</g>
	<path class="st18" d="M105.32,328.29c9.35,9.07,20.28,12.35,29.46,18.03c30.6,18.93,56.63,25.22,91.41,34.46
		c-9.89,2.54-27.03,2.14-37.64,0.58c11.16,3.22,27.88,6.24,39.49,6.4c13.89,0.2,51.34,11.64,58.7,14.96
		c-0.19-3.17-4.06-7.28-7.13-8.08c7.34,0.63,17.57,4.58,24.02,7.51c-7.54-4.69-19.27-9.21-27.44-13.16
		c14.55,1.33,29.3,0.41,43.57-2.74c-6.09-7.27-14.88-12.22-24.25-13.68c4.36-0.54,8.87,0.23,12.8,2.18
		c-0.97-2.73-4.26-3.72-7.1-4.26c-34.41-6.48-69.91-1.07-104.82-3.78c20.73-3.97,45.78-0.59,63.87-11.47
		c1.37-0.83,5.56-3.14,4.45-4.3c-24.47,0.07-40.81,7.64-58.77,0.89c15.34-1.41,35.26-5.76,50.75-12.18
		c-9.16,3.08-18.23,5.49-27.22,7.14c-10.51,1.92-23.15,2.83-33.83,2.4c-33.47-1.35-63.14-20.79-90.88-39.56
		c13.43,13.03,29.45,23.38,46.84,30.28c-11.17-0.87-21-7.39-30.09-13.93c-13.82-9.94-27.88-21.19-34.07-37.05
		c-3.2,0.49-5.25,3.98-5.21,7.22c0.04,3.24,1.63,6.24,3.3,9.02C91.35,314.99,103.82,327.35,105.32,328.29z"/>
	<path class="st19" d="M322.12,384.99c1-1.03,2.27-1.31,3.63-1.35c1.93-0.05,3.66,0.38,5.34,1.3c2.34,1.28,4.16,4,2.86,6.51
		C330.15,391.38,321.7,388.32,322.12,384.99C322.12,384.99,322.12,384.99,322.12,384.99z"/>
	<path class="st3" d="M373.16,252.61c0,0,5.28,6.88,1.89,22.91C375.04,275.52,384.09,265.71,373.16,252.61z"/>
	<path class="st3" d="M377.3,327.92l3.51-2.64c0,0,4.22,55.61,81.32,65.6c0,0-30.03,4.6-59.16-20.43
		c-11.82-10.16-20.4-23.64-24.69-38.64C377.9,330.47,377.57,329.16,377.3,327.92z"/>
	<path class="st3" d="M380.81,280.7c0,0,13.64,14.61,1.58,32.33c0,0,8.48-5.65,8.48-16.21C390.88,284.89,380.81,280.7,380.81,280.7z
		"/>
	<path class="st20" d="M299.75,301.13c0,0-46.42,23.53-88.4,27.02c-41.97,3.48-77.86-8.53-77.86-8.53s-29.88-17.11-37.35-28.04
		c-7.47-10.93-7.49-7.97-9.27-15.84c0,0,17.71,22.64,49.68,34.58l25.42-2.94l63.53,2.02l44.8-6.46L299.75,301.13z"/>
	<path class="st21" d="M112.69,295.01c-0.23-0.35,0.14-0.79,0.52-0.63c6.52,2.6,44.76,17.34,74.48,17.06
		c0.66-0.01,1.32,0.16,1.87,0.54c0.2,0.14,0.35,0.28,0.35,0.39c-0.03,0.63-2.53,1.11-11.16,0.66c-13.16-0.69-28.92-0.9-37.18-2.74
		C133.92,308.59,115.67,299.66,112.69,295.01z"/>
	<path class="st22" d="M354.89,273.99c0,0-22.6,21.99-55.13,27.14s-55.4,15.98-89.38,10.97c0,0,35.74,0.79,61.26-9.13
		c11.54-4.49,24.4-7.29,36.28-10.95C327.65,285.94,345.49,279.87,354.89,273.99z"/>
	<path class="st3" d="M83.11,255.95c0,0-1.53,28.08,47.27,42.25c0,0,53.68,25.98,177.39-6.07c0,0-70.77,28.18-143.94,18.17
		c-16.89-2.31-33.9-7.4-50.2-14.49c0,0,13.12,9.18,19.15,11.17c3.46,1.15,9.44,3.2,7.23,3.63c-0.31,0.06-0.9,0.07-1.66,0.04
		c-6.02-0.21-11.89-1.95-17.13-4.92c-10.68-6.07-29.6-17.92-34.34-28.16c0,0-0.18,2.95,1.86,6.71
		C88.73,284.29,73.25,267.6,83.11,255.95z"/>
	<path class="st18" d="M233.43,352.88c0,0,29.79-0.77,62.43-12.98s46.57-24.48,46.57-24.48s-75.5,31.28-104.77,36.5
		C236.01,352.22,234.77,352.76,233.43,352.88z"/>
	<path class="st23" d="M223.76,352.31c0,0,42.34-6.26,76.62-19.64c-1.14,0.21-34.23,15.56-74.41,21.42c0,0-9.04,1.97-18.61-1.74
		C207.36,352.35,213.72,353.43,223.76,352.31z"/>
</g>
</svg>
